<svg width="12" height="20" viewBox="0 0 12 20" fill="none" xmlns="http://www.w3.org/2000/svg">
<path fill-rule="evenodd" clip-rule="evenodd" d="M0 2C0 0.89543 0.89543 0 2 0C3.10457 0 4 0.89543 4 2C4 3.10457 3.10457 4 2 4C0.89543 4 0 3.10457 0 2Z" fill="#686F7D"/>
<path fill-rule="evenodd" clip-rule="evenodd" d="M8 2C8 0.89543 8.89543 0 10 0C11.1046 0 12 0.89543 12 2C12 3.10457 11.1046 4 10 4C8.89543 4 8 3.10457 8 2Z" fill="#686F7D"/>
<path fill-rule="evenodd" clip-rule="evenodd" d="M0 10C0 8.89543 0.89543 8 2 8C3.10457 8 4 8.89543 4 10C4 11.1046 3.10457 12 2 12C0.89543 12 0 11.1046 0 10Z" fill="#686F7D"/>
<path fill-rule="evenodd" clip-rule="evenodd" d="M8 10C8 8.89543 8.89543 8 10 8C11.1046 8 12 8.89543 12 10C12 11.1046 11.1046 12 10 12C8.89543 12 8 11.1046 8 10Z" fill="#686F7D"/>
<path fill-rule="evenodd" clip-rule="evenodd" d="M0 18C0 16.8954 0.89543 16 2 16C3.10457 16 4 16.8954 4 18C4 19.1046 3.10457 20 2 20C0.89543 20 0 19.1046 0 18Z" fill="#686F7D"/>
<path fill-rule="evenodd" clip-rule="evenodd" d="M8 18C8 16.8954 8.89543 16 10 16C11.1046 16 12 16.8954 12 18C12 19.1046 11.1046 20 10 20C8.89543 20 8 19.1046 8 18Z" fill="#686F7D"/>
</svg>
