<svg width="16" height="16" viewBox="0 0 16 16" fill="none" xmlns="http://www.w3.org/2000/svg">
<path d="M7.55199 2.33326C7.82767 2.31127 8.03331 2.06996 8.01128 1.79429C7.98931 1.51861 7.74802 1.31296 7.47233 1.33495C4.03602 1.60905 1.33325 4.48372 1.33325 7.99012C1.33325 11.6775 4.32254 14.6667 8.01001 14.6667C11.5146 14.6667 14.3881 11.967 14.6649 8.53353C14.6872 8.25785 14.4817 8.01643 14.206 7.9942C13.9304 7.97196 13.6889 8.1774 13.6667 8.45307C13.4314 11.3705 10.9884 13.6652 8.01001 13.6652C4.87566 13.6652 2.33477 11.1244 2.33477 7.99012C2.33477 5.01013 4.63206 2.56618 7.55199 2.33326ZM11.8139 3.09892C12.0008 2.8951 12.3176 2.8814 12.5214 3.06831C12.6645 3.19954 12.8019 3.33693 12.9331 3.48006C13.12 3.68393 13.1062 4.00068 12.9023 4.18754C12.6984 4.37441 12.3817 4.36063 12.1948 4.15676C12.0832 4.03498 11.9663 3.91808 11.8445 3.80642C11.6407 3.6195 11.627 3.30275 11.8139 3.09892ZM7.50925 3.98423C7.76264 3.98423 7.97229 4.17273 8.0054 4.41706L8.01001 4.48498V7.99019H10.18C10.4564 7.99019 10.6807 8.21452 10.6807 8.49093C10.6807 8.74431 10.4922 8.95388 10.2479 8.98706L10.18 8.99167H7.50925C7.25587 8.99167 7.04622 8.80313 7.0131 8.55883L7.0085 8.49093V4.48498C7.0085 4.20857 7.23284 3.98423 7.50925 3.98423ZM9.19914 1.90796C9.27379 1.64168 9.55021 1.48636 9.81648 1.56104C10.0616 1.62976 10.3009 1.71211 10.5337 1.80721C10.7897 1.9118 10.9125 2.20413 10.8079 2.46013C10.7033 2.71614 10.411 2.83889 10.1549 2.7343C9.95729 2.65356 9.75411 2.58366 9.54607 2.52532C9.2798 2.45064 9.12443 2.17424 9.19914 1.90796ZM14.1919 5.46357C14.0872 5.20761 13.7948 5.085 13.5388 5.18972C13.2828 5.29443 13.1603 5.58682 13.265 5.84278C13.3266 5.99334 13.3819 6.14712 13.4305 6.30381C13.446 6.35344 13.4607 6.40335 13.4748 6.45356C13.5495 6.71984 13.8259 6.87514 14.0922 6.80043C14.3585 6.72572 14.5138 6.4493 14.4391 6.18302C14.4225 6.12389 14.4051 6.06509 14.3869 6.00663C14.3296 5.82204 14.2645 5.64089 14.1919 5.46357Z" fill="#41454E" stroke="#41454E" stroke-width="0.5"/>
</svg>
